<svg width="796" height="781" viewBox="0 0 796 781" fill="none" xmlns="http://www.w3.org/2000/svg">
<path d="M331.876 125.485C38.3 321.61 3.36898 345.083 1.36656 348.086C-0.63585 351.201 -0.63585 343.97 2.70151 518.737C5.1489 643.443 6.59509 707.409 7.70755 740.893C8.82 774.712 9.26498 776.826 16.1622 779.718C19.9445 781.275 25.173 780.274 153.661 752.908L287.156 724.54L296.5 727.878C326.314 738.335 366.029 739.67 399.402 731.215C429.883 723.428 458.807 709.189 485.951 688.608L497.632 679.709L643.141 648.782C723.237 631.762 789.651 617.3 790.874 616.633C792.098 615.965 793.878 613.963 794.768 612.183C796.325 609.068 796.214 593.938 793.21 450.543C791.319 363.55 789.539 270.548 789.206 243.961C788.872 217.373 788.316 193.567 787.982 191.008C787.426 185.891 774.744 161.973 763.508 144.619C734.584 100.009 697.539 64.411 653.82 38.8246C618.11 18.0217 572.611 4.11604 529.337 0.77868L519.77 0L331.876 125.485ZM562.154 29.3687C586.628 34.486 607.765 41.8282 629.235 52.619C671.731 74.0893 709.888 108.13 738.811 150.515C746.042 161.083 759.058 182.776 758.391 183.332C757.612 184 553.366 229.388 512.65 237.954L493.071 242.07L483.949 238.51C461.032 229.721 433.332 225.939 407.412 228.164C362.357 232.058 322.198 249.078 281.927 281.228L271.915 289.238L232.979 297.247C125.85 319.163 68.7812 330.398 69.6712 329.508C70.1161 329.064 173.129 260.091 298.503 176.324L526.444 24.1402L538.792 25.5864C545.578 26.3651 556.147 28.0338 562.154 29.3687ZM453.801 258.756C520.548 274.665 566.604 329.063 580.287 408.048C583.291 425.624 582.957 469.01 579.731 488.033C569.162 548.995 542.019 602.727 500.635 644.221C437.448 707.631 353.68 726.877 286.933 693.392C239.543 669.585 206.28 621.416 195.49 561.01C192.597 544.768 191.485 508.725 193.376 490.703C198.827 438.529 219.519 387.467 252.225 345.194C261.458 333.291 282.706 311.487 293.608 302.587C322.087 279.559 356.684 263.206 389.279 257.31C406.411 254.084 437.337 254.863 453.801 258.756Z" fill="#fff"/>
<path d="M397.733 295.245C344.446 301.363 292.828 337.407 260.456 391.027C220.741 456.773 214.734 537.76 245.327 596.608C264.016 632.541 293.051 656.458 330.095 666.359C339.663 668.918 343.111 669.252 360.354 669.363C381.602 669.474 388.833 668.473 405.965 663.133C455.246 647.559 498.743 607.622 524.997 553.779C550.139 502.272 555.923 442.979 540.46 394.587C535.343 378.345 535.899 378.901 529.447 385.354C505.64 409.16 472.489 397.702 468.818 364.551C467.372 351.424 473.491 333.736 483.058 323.279L487.619 318.273L484.949 316.159C479.609 312.043 457.583 301.808 448.127 299.139C432.107 294.578 414.642 293.243 397.733 295.245ZM387.053 353.76C390.39 380.793 393.283 393.586 398.734 405.823C408.968 429.073 431.106 448.652 454.579 455.104C466.927 458.553 476.717 458.887 502.748 456.662C515.875 455.549 526.777 454.659 527 454.771C527.111 454.882 516.209 458.887 502.526 463.559C488.954 468.343 474.826 473.682 471.154 475.574C439.45 491.593 413.529 523.075 401.181 560.454C396.398 574.804 394.951 584.038 392.615 614.296C391.392 629.982 390.168 643.554 390.057 644.444C389.945 645.334 388.166 633.319 386.163 617.634C384.161 602.059 381.602 585.595 380.378 581.145C370.922 547.327 347.45 522.297 317.97 514.398C305.177 511.061 297.167 510.838 270.802 512.952C257.341 514.176 246.217 514.954 245.994 514.843C245.883 514.732 256.785 510.727 270.357 506.055C283.929 501.382 298.057 495.931 301.839 494.04C333.767 477.91 360.243 445.76 372.035 408.381C376.485 394.365 378.042 384.797 380.378 355.762C381.602 341.078 382.603 327.84 382.714 326.282C382.937 321.833 383.493 325.281 387.053 353.76ZM283.039 397.702C270.357 424.734 262.458 458.553 262.458 486.253V494.93L256.117 496.933C252.558 498.045 248.998 499.269 248.219 499.603C244.437 500.937 251 464.227 258.009 443.646C263.237 428.739 272.804 409.16 281.37 396.033C284.485 391.361 287.266 387.467 287.489 387.467C287.711 387.467 285.709 392.14 283.039 397.702ZM269.022 539.873C273.472 556.115 282.927 575.917 292.383 588.599C311.406 614.296 335.324 629.537 365.36 635.433L375.372 637.324L375.706 641.663L376.04 645.89L360.688 645.223C349.897 644.889 342.666 643.999 336.436 642.219C292.272 630.205 260.011 592.604 250.11 541.876C248.998 535.868 247.996 530.195 247.996 529.305C247.996 528.193 249.776 527.636 254.449 527.303C257.897 527.08 261.791 526.858 263.126 526.746C265.128 526.524 265.796 528.081 269.022 539.873ZM417.979 633.876C417.646 634.209 414.308 635.656 410.526 637.213C404.519 639.549 403.629 639.66 403.962 638.103C404.185 636.768 406.298 635.767 410.415 634.877C418.202 633.319 418.647 633.208 417.979 633.876Z" fill="#fff"/>
</svg>
