<svg width="954" height="936" viewBox="0 0 954 936" fill="none" xmlns="http://www.w3.org/2000/svg">
<path d="M397.771 150.401C45.9045 385.467 4.0379 413.601 1.6379 417.201C-0.7621 420.934 -0.7621 412.267 3.2379 621.734C6.17123 771.201 7.90457 847.867 9.2379 888.001C10.5712 928.534 11.1046 931.067 19.3712 934.534C23.9046 936.401 30.1712 935.201 184.171 902.401L344.171 868.401L355.371 872.401C391.105 884.934 438.705 886.534 478.705 876.401C515.238 867.067 549.905 850.001 582.438 825.334L596.438 814.667L770.838 777.601C866.838 757.201 946.438 739.867 947.905 739.067C949.371 738.267 951.505 735.867 952.571 733.734C954.438 730.001 954.305 711.867 950.705 540.001C948.438 435.734 946.305 324.267 945.905 292.401C945.505 260.534 944.838 232.001 944.438 228.934C943.771 222.801 928.571 194.134 915.105 173.334C880.438 119.867 836.038 77.2007 783.638 46.5341C740.838 21.6007 686.305 4.93402 634.438 0.934021L622.971 0.000732422L397.771 150.401ZM673.771 35.2007C703.105 41.334 728.438 50.1341 754.171 63.0674C805.105 88.8007 850.838 129.601 885.505 180.401C894.171 193.067 909.771 219.067 908.971 219.734C908.038 220.534 663.238 274.934 614.438 285.201L590.971 290.134L580.038 285.867C552.571 275.334 519.371 270.801 488.305 273.467C434.305 278.134 386.171 298.534 337.905 337.067L325.905 346.667L279.238 356.267C150.838 382.534 82.4379 396.001 83.5046 394.934C84.0379 394.401 207.505 311.734 357.771 211.334L630.971 28.934L645.771 30.6674C653.905 31.6007 666.571 33.6007 673.771 35.2007ZM543.905 310.134C623.905 329.201 679.105 394.401 695.505 489.067C699.105 510.134 698.705 562.134 694.838 584.934C682.171 658.001 649.638 722.401 600.038 772.134C524.305 848.134 423.905 871.201 343.905 831.067C287.105 802.534 247.238 744.801 234.305 672.401C230.838 652.934 229.505 609.734 231.771 588.134C238.305 525.601 263.105 464.401 302.305 413.734C313.371 399.467 338.838 373.334 351.905 362.667C386.038 335.067 427.505 315.467 466.571 308.401C487.105 304.534 524.171 305.467 543.905 310.134Z" fill="black"/>
<path d="M476.705 353.868C412.838 361.201 350.971 404.401 312.171 468.668C264.571 547.468 257.371 644.534 294.038 715.068C316.438 758.134 351.238 786.801 395.638 798.668C407.105 801.734 411.238 802.134 431.905 802.268C457.371 802.401 466.038 801.201 486.571 794.801C545.638 776.134 597.771 728.268 629.238 663.734C659.371 602.001 666.305 530.934 647.771 472.934C641.638 453.468 642.305 454.134 634.571 461.868C606.038 490.401 566.305 476.668 561.905 436.934C560.171 421.201 567.505 400.001 578.971 387.468L584.438 381.468L581.238 378.934C574.838 374.001 548.438 361.734 537.105 358.534C517.905 353.068 496.971 351.468 476.705 353.868ZM463.905 424.001C467.905 456.401 471.371 471.734 477.905 486.401C490.171 514.268 516.705 537.734 544.838 545.468C559.638 549.601 571.371 550.001 602.571 547.334C618.305 546.001 631.371 544.934 631.638 545.068C631.771 545.201 618.705 550.001 602.305 555.601C586.038 561.334 569.105 567.734 564.705 570.001C526.705 589.201 495.638 626.934 480.838 671.734C475.105 688.934 473.371 700.001 470.571 736.268C469.105 755.068 467.638 771.334 467.505 772.401C467.371 773.468 465.238 759.068 462.838 740.268C460.438 721.601 457.371 701.868 455.905 696.534C444.571 656.001 416.438 626.001 381.105 616.534C365.771 612.534 356.171 612.268 324.571 614.801C308.438 616.268 295.105 617.201 294.838 617.068C294.705 616.934 307.771 612.134 324.038 606.534C340.305 600.934 357.238 594.401 361.771 592.134C400.038 572.801 431.771 534.268 445.905 489.468C451.238 472.668 453.105 461.201 455.905 426.401C457.371 408.801 458.571 392.934 458.705 391.068C458.971 385.734 459.638 389.868 463.905 424.001ZM339.238 476.668C324.038 509.068 314.571 549.601 314.571 582.801V593.201L306.971 595.601C302.705 596.934 298.438 598.401 297.505 598.801C292.971 600.401 300.838 556.401 309.238 531.734C315.505 513.868 326.971 490.401 337.238 474.668C340.971 469.068 344.305 464.401 344.571 464.401C344.838 464.401 342.438 470.001 339.238 476.668ZM322.438 647.068C327.771 666.534 339.105 690.268 350.438 705.468C373.238 736.268 401.905 754.534 437.905 761.601L449.905 763.868L450.305 769.068L450.705 774.134L432.305 773.334C419.371 772.934 410.705 771.868 403.238 769.734C350.305 755.334 311.638 710.268 299.771 649.468C298.438 642.268 297.238 635.468 297.238 634.401C297.238 633.068 299.371 632.401 304.971 632.001C309.105 631.734 313.771 631.468 315.371 631.334C317.771 631.068 318.571 632.934 322.438 647.068ZM500.971 759.734C500.571 760.134 496.571 761.868 492.038 763.734C484.838 766.534 483.771 766.668 484.171 764.801C484.438 763.201 486.971 762.001 491.905 760.934C501.238 759.068 501.771 758.934 500.971 759.734Z" fill="black"/>
</svg>
